<svg width="24" height="24" viewBox="0 0 24 24" fill="none" xmlns="http://www.w3.org/2000/svg">
<g clip-path="url(#clip0_4141_201342)">
<path d="M23.2744 6.08672C22.6448 3.76734 20.2327 1.35562 17.9133 0.725625C16.4916 0.37125 14.5861 0.00609375 12 0C9.41391 0.0065625 7.50891 0.37125 6.08672 0.726094C3.76781 1.35563 1.35563 3.76734 0.726094 6.08672C0.37125 7.50891 0.0065625 9.41391 0 12C0.0065625 14.5861 0.37125 16.4911 0.726094 17.9133C1.35609 20.2327 3.76781 22.6444 6.08719 23.2744C7.50938 23.6292 9.41438 23.9939 12.0005 24.0005C14.5861 23.9939 16.4916 23.6292 17.9137 23.2744C20.2331 22.6444 22.6448 20.2327 23.2748 17.9133C23.6297 16.4916 23.9944 14.5861 24.0009 12C23.9944 9.41391 23.6292 7.50891 23.2744 6.08672Z" fill="#FFE5E5"/>
<path d="M17.9948 17.9141C17.9395 17.6366 17.6667 17.3478 17.385 17.2592C17.2139 17.2063 13.8857 16.986 12.0023 16.9883C10.1189 16.986 6.79028 17.2063 6.61965 17.2592C6.33794 17.3478 6.06512 17.6366 6.00981 17.9141C5.97887 18.0833 5.95122 18.3102 5.96997 18.6149C5.98965 18.9196 6.04497 19.1408 6.09559 19.3053C6.18372 19.5739 6.47903 19.828 6.757 19.8875C6.92809 19.9241 10.2032 19.9733 12.0023 19.9742C13.8014 19.9733 17.0765 19.9241 17.2476 19.8875C17.5251 19.828 17.8204 19.5739 17.909 19.3053C17.9597 19.1413 18.015 18.9196 18.0347 18.6149C18.0529 18.3102 18.0257 18.0833 17.9948 17.9141Z" fill="url(#paint0_linear_4141_201342)"/>
<path d="M12.6611 5.78039V4.6882C12.6611 4.32214 12.3645 4.02539 11.9986 4.02539C11.6326 4.02539 11.336 4.32214 11.336 4.6882V5.78039C11.336 6.14645 11.6326 6.4432 11.9986 6.4432C12.3645 6.4432 12.6611 6.14645 12.6611 5.78039Z" fill="url(#paint1_linear_4141_201342)"/>
<path d="M7.97809 7.17047L7.20591 6.3983C6.94711 6.13949 6.52758 6.13942 6.26886 6.39813C6.01015 6.65684 6.01022 7.07638 6.26903 7.33518L7.0412 8.10736C7.30001 8.36616 7.71954 8.36624 7.97826 8.10752C8.23697 7.84881 8.23689 7.42928 7.97809 7.17047Z" fill="url(#paint2_linear_4141_201342)"/>
<path d="M16.9633 8.10797L17.7355 7.3358C17.9943 7.07699 17.9944 6.65746 17.7357 6.39874C17.4769 6.14003 17.0574 6.14011 16.7986 6.39891L16.0264 7.17109C15.7676 7.42989 15.7676 7.84942 16.0263 8.10814C16.285 8.36685 16.7045 8.36678 16.9633 8.10797Z" fill="url(#paint3_linear_4141_201342)"/>
<path d="M18.2186 12.793H19.3108C19.6769 12.793 19.9736 12.4963 19.9736 12.1304C19.9736 11.7645 19.6769 11.4678 19.3108 11.4678H18.2186C17.8526 11.4678 17.5558 11.7645 17.5558 12.1304C17.5558 12.4963 17.8526 12.793 18.2186 12.793Z" fill="url(#paint4_linear_4141_201342)"/>
<path d="M4.68934 12.793H5.78152C6.14758 12.793 6.44434 12.4963 6.44434 12.1304C6.44434 11.7645 6.14758 11.4678 5.78152 11.4678H4.68934C4.32328 11.4678 4.02652 11.7645 4.02652 12.1304C4.02652 12.4963 4.32328 12.793 4.68934 12.793Z" fill="url(#paint5_linear_4141_201342)"/>
<path d="M11.9984 16.9896C13.37 16.9877 15.5075 17.104 16.6339 17.1879C16.6948 15.7301 16.6896 13.3826 16.6779 11.9543C16.639 9.4568 14.4612 7.43555 11.9984 7.43555C9.53558 7.43555 7.3573 9.4568 7.31886 11.9543C7.30715 13.3821 7.30199 15.7301 7.36293 17.1879C8.4898 17.104 10.6273 16.9877 11.9984 16.9896Z" fill="url(#paint6_linear_4141_201342)"/>
<path d="M11.9956 15.5496C11.6094 15.5496 11.2963 15.2365 11.2963 14.8502C11.2963 14.464 11.6094 14.1509 11.9956 14.1509C12.3819 14.1509 12.695 14.464 12.695 14.8502C12.695 15.2365 12.3819 15.5496 11.9956 15.5496ZM12.7302 10.6657C12.6973 11.703 12.665 12.0691 12.6322 13.1065C12.6195 13.4473 12.3345 13.7135 11.9956 13.7135C11.6567 13.7135 11.3717 13.4473 11.3591 13.1065C11.3263 12.0691 11.2939 11.703 11.2611 10.6657C11.2484 10.3254 11.577 10.0366 11.9956 10.0371C12.4142 10.0371 12.7428 10.3254 12.7302 10.6657Z" fill="url(#paint7_linear_4141_201342)"/>
</g>
<defs>
<linearGradient id="paint0_linear_4141_201342" x1="14.3287" y1="20.8606" x2="7.537" y2="14.0689" gradientUnits="userSpaceOnUse">
<stop stop-color="#2675F9"/>
<stop offset="0.26" stop-color="#4F91FF"/>
<stop offset="0.66" stop-color="#659FFF"/>
<stop offset="1" stop-color="#8FC4F2"/>
</linearGradient>
<linearGradient id="paint1_linear_4141_201342" x1="12.7404" y1="5.97633" x2="11.2568" y2="4.49273" gradientUnits="userSpaceOnUse">
<stop stop-color="#EF3739"/>
<stop offset="0.54" stop-color="#EF3739"/>
<stop offset="1" stop-color="#FF8C8B"/>
</linearGradient>
<linearGradient id="paint2_linear_4141_201342" x1="7.97694" y1="8.10635" x2="6.26792" y2="6.39733" gradientUnits="userSpaceOnUse">
<stop stop-color="#EF3739"/>
<stop offset="0.54" stop-color="#EF3739"/>
<stop offset="1" stop-color="#FF8C8B"/>
</linearGradient>
<linearGradient id="paint3_linear_4141_201342" x1="17.3462" y1="7.72097" x2="16.4095" y2="6.78375" gradientUnits="userSpaceOnUse">
<stop stop-color="#EF3739"/>
<stop offset="0.54" stop-color="#EF3739"/>
<stop offset="1" stop-color="#FF8C8B"/>
</linearGradient>
<linearGradient id="paint4_linear_4141_201342" x1="19.5058" y1="12.8727" x2="18.0227" y2="11.3891" gradientUnits="userSpaceOnUse">
<stop stop-color="#EF3739"/>
<stop offset="0.54" stop-color="#EF3739"/>
<stop offset="1" stop-color="#FF8C8B"/>
</linearGradient>
<linearGradient id="paint5_linear_4141_201342" x1="5.97652" y1="12.8722" x2="4.4934" y2="11.3886" gradientUnits="userSpaceOnUse">
<stop stop-color="#EF3739"/>
<stop offset="0.54" stop-color="#EF3739"/>
<stop offset="1" stop-color="#FF8C8B"/>
</linearGradient>
<linearGradient id="paint6_linear_4141_201342" x1="16.878" y1="13.352" x2="5.32488" y2="14.5681" gradientUnits="userSpaceOnUse">
<stop stop-color="#EF3739"/>
<stop offset="0.54" stop-color="#EF3739"/>
<stop offset="1" stop-color="#FF8C8B"/>
</linearGradient>
<linearGradient id="paint7_linear_4141_201342" x1="13.5327" y1="14.3023" x2="10.4591" y2="11.2287" gradientUnits="userSpaceOnUse">
<stop stop-color="#FFD2D2"/>
<stop offset="0.57" stop-color="white"/>
<stop offset="1" stop-color="white"/>
</linearGradient>
<clipPath id="clip0_4141_201342">
<rect width="24" height="24" fill="white"/>
</clipPath>
</defs>
</svg>
